<svg width="42" height="52" viewBox="0 0 42 52" fill="none" xmlns="http://www.w3.org/2000/svg">
<path d="M41.8999 30.3802C41.8999 19.6302 35.3699 7.15018 27.3099 2.49018C23.6099 0.360183 20.2199 0.210181 17.6499 1.75018L11.3799 5.45018L14.1899 11.3802C14.1899 11.8202 14.1899 12.2702 14.1899 12.7302C14.1899 23.0502 20.1899 34.9602 27.8299 40.0202L30.5899 45.8502L36.8199 42.2302C39.9099 40.4702 41.8999 36.3102 41.8999 30.3802Z" fill="#00DFC0"/>
<path opacity="0.15" d="M41.8999 30.3802C41.8999 19.6302 35.3699 7.15018 27.3099 2.49018C23.6099 0.360183 20.2199 0.210181 17.6499 1.75018L11.3799 5.45018L14.1899 11.3802C14.1899 11.8202 14.1899 12.2702 14.1899 12.7302C14.1899 23.0502 20.1899 34.9602 27.8299 40.0202L30.5899 45.8502L36.8199 42.2302C39.9099 40.4702 41.8999 36.3102 41.8999 30.3802Z" fill="black"/>
<path d="M29.7738 46.3067C36.2278 43.5605 37.5245 32.0855 32.6699 20.6766C27.8154 9.26765 18.6479 2.24516 12.1939 4.99138C5.73984 7.73761 4.44321 19.2126 9.29776 30.6215C14.1523 42.0305 23.3197 49.053 29.7738 46.3067Z" fill="#00DFC0"/>
<path d="M31 32.6699C31.1339 35.1763 30.3914 37.6511 28.9 39.6699C27.07 41.8699 24.22 42.3999 21.03 40.5499C17.84 38.6999 14.97 34.8599 13.14 30.5499C11.8149 27.5809 11.0877 24.38 11 21.1299L31 32.6699Z" fill="#455A64"/>
<path d="M28.8598 39.6601C27.0298 41.8601 24.1799 42.3901 20.9899 40.5401C17.7999 38.6901 14.9299 34.8501 13.0999 30.5401C15.0999 29.0601 17.9299 29.0501 20.9899 30.8001C24.3692 32.9838 27.0899 36.0468 28.8598 39.6601V39.6601Z" fill="#F28F8F"/>
<path d="M25.6598 22.2702C25.6492 22.8667 25.7763 23.4576 26.0313 23.997C26.2862 24.5364 26.6622 25.0097 27.1298 25.3802C27.9398 25.8502 28.5998 25.2202 28.5998 23.9702C28.6104 23.3737 28.4832 22.7828 28.2283 22.2434C27.9733 21.704 27.5974 21.2307 27.1298 20.8602C26.3198 20.3902 25.6598 21.0002 25.6598 22.2702Z" fill="#455A64"/>
<path d="M13.4198 15.45C13.4092 16.0465 13.5364 16.6374 13.7913 17.1768C14.0463 17.7162 14.4222 18.1895 14.8898 18.56C15.6998 19.03 16.3598 18.39 16.3598 17.15C16.3766 16.5468 16.2525 15.948 15.9973 15.4012C15.7421 14.8543 15.3629 14.3746 14.8898 14C14.0798 13.57 13.4198 14.2 13.4198 15.45Z" fill="#455A64"/>
<path d="M10.1398 32C9.68678 33.3038 8.95452 34.493 7.99417 35.4845C7.03382 36.4759 5.86855 37.2457 4.57979 37.74C4.42994 37.7986 4.30124 37.9011 4.21053 38.034C4.11981 38.1669 4.07129 38.3241 4.07129 38.485C4.07129 38.6459 4.11981 38.8031 4.21053 38.936C4.30124 39.0689 4.42994 39.1714 4.57979 39.23C6.43596 39.833 8.41673 39.9445 10.3288 39.5536C12.241 39.1628 14.0191 38.283 15.4898 37L10.1398 32Z" fill="#00DFC0"/>
</svg>
